<?xml version="1.0" encoding="UTF-8" standalone="no"?>
<svg
   xmlns:dc="http://purl.org/dc/elements/1.1/"
   xmlns:cc="http://creativecommons.org/ns#"
   xmlns:rdf="http://www.w3.org/1999/02/22-rdf-syntax-ns#"
   xmlns:svg="http://www.w3.org/2000/svg"
   xmlns="http://www.w3.org/2000/svg"
   width="120"
   height="120"
   viewBox="0 0 31.749999 31.750001"
   version="1.1"
   id="svg3022">
  <defs
     id="defs3016" />
  <metadata
     id="metadata3019">
    <rdf:RDF>
      <cc:Work
         rdf:about="">
        <dc:format>image/svg+xml</dc:format>
        <dc:type
           rdf:resource="http://purl.org/dc/dcmitype/StillImage" />
        <dc:title></dc:title>
      </cc:Work>
    </rdf:RDF>
  </metadata>
  <g
     id="g3830"
     transform="matrix(23.998618,0,0,23.998618,-203.18829,-342.88001)">
    <path
       id="path887-3-6-9"
       style="color:#000000;font-style:normal;font-variant:normal;font-weight:normal;font-stretch:normal;font-size:medium;line-height:normal;font-family:sans-serif;font-variant-ligatures:normal;font-variant-position:normal;font-variant-caps:normal;font-variant-numeric:normal;font-variant-alternates:normal;font-variant-east-asian:normal;font-feature-settings:normal;font-variation-settings:normal;text-indent:0;text-align:start;text-decoration:none;text-decoration-line:none;text-decoration-style:solid;text-decoration-color:#000000;letter-spacing:normal;word-spacing:normal;text-transform:none;writing-mode:lr-tb;direction:ltr;text-orientation:mixed;dominant-baseline:auto;baseline-shift:baseline;text-anchor:start;white-space:normal;shape-padding:0;shape-margin:0;inline-size:0;clip-rule:nonzero;display:inline;overflow:visible;visibility:visible;isolation:auto;mix-blend-mode:normal;color-interpolation:sRGB;color-interpolation-filters:linearRGB;solid-color:#000000;solid-opacity:1;vector-effect:none;fill:#000000;fill-opacity:1;fill-rule:nonzero;stroke:none;stroke-width:0.606049;stroke-linecap:round;stroke-linejoin:round;stroke-miterlimit:4;stroke-dasharray:none;stroke-dashoffset:0;stroke-opacity:1;color-rendering:auto;image-rendering:auto;shape-rendering:auto;text-rendering:auto;enable-background:accumulate;stop-color:#000000"
       d="m 9.3044493,14.288149 c -0.065252,-0.0047 -0.1427427,0.01496 -0.2117128,0.08393 l -0.3210141,0.321014 a 0.05000404,0.05000404 0 0 0 -0.00564,0.0072 l -3.131e-4,-3.14e-4 c -6.788e-4,7.03e-4 -0.00137,4.1e-4 -0.00219,0.0013 -0.0044,0.0045 -0.010316,0.01153 -0.017852,0.0191 -0.015071,0.01515 -0.035631,0.03448 -0.055434,0.05418 -0.03961,0.0394 -0.078301,0.0783 -0.078301,0.0783 v 0.0013 c -0.091957,0.09196 -0.096292,0.19812 -0.072032,0.2709 0.02426,0.07278 0.072032,0.119637 0.072032,0.119637 l 0.159724,0.160976 c 0,0 0.046856,0.04809 0.1196365,0.07235 0.00424,0.0014 0.00962,0.0016 0.014093,0.0028 a 0.08017513,0.08017513 0 0 0 -0.017538,0.04917 0.08017513,0.08017513 0 0 0 0.080488,0.08049 h 0.4804287 a 0.08017513,0.08017513 0 0 0 0.080489,-0.08049 0.08017513,0.08017513 0 0 0 -0.080489,-0.07924 H 9.103698 c 0.020259,-0.01215 0.040469,-0.02575 0.059818,-0.0451 L 9.3235536,15.24468 9.6442545,14.923979 c 0.09196,-0.09196 0.096292,-0.198437 0.072032,-0.271217 -0.02426,-0.07278 -0.072032,-0.119637 -0.072032,-0.119637 L 9.4845304,14.372082 c 0,0 -0.046856,-0.04777 -0.1196364,-0.07203 -0.018196,-0.0061 -0.038694,-0.01035 -0.060445,-0.0119 z m -0.00846,0.09771 c 0.012752,0.0015 0.025085,0.0048 0.036956,0.0088 0.047483,0.01583 0.080488,0.04854 0.080488,0.04854 L 9.5744102,14.6029 c 0,0 0.031463,0.03301 0.047291,0.08049 0.015827,0.04748 0.021099,0.102295 -0.047291,0.170686 l -0.2853069,0.28531 -0.410898,-0.410898 0.2853111,-0.285311 c 0.051292,-0.05129 0.094222,-0.06192 0.1324772,-0.05731 z m -0.4882505,0.414029 0.4102715,0.409333 -0.1252738,0.125273 c -0.06839,0.06839 -0.1219502,0.06437 -0.1694326,0.04854 -0.047483,-0.01583 -0.080488,-0.04854 -0.080488,-0.04854 l -0.160977,-0.160976 c 0,0 -0.031463,-0.03301 -0.047291,-0.08049 -0.015827,-0.04748 -0.021099,-0.10073 0.047291,-0.16912 0,0 0.039504,-0.03877 0.079236,-0.0783 0.016649,-0.01656 0.032564,-0.03184 0.046664,-0.04573 z" />
  </g>
</svg>
