<?xml version="1.0" encoding="UTF-8" standalone="no"?>
<svg
   xmlns:dc="http://purl.org/dc/elements/1.1/"
   xmlns:cc="http://creativecommons.org/ns#"
   xmlns:rdf="http://www.w3.org/1999/02/22-rdf-syntax-ns#"
   xmlns:svg="http://www.w3.org/2000/svg"
   xmlns="http://www.w3.org/2000/svg"
   width="120"
   height="120"
   viewBox="0 0 31.749999 31.750001"
   version="1.1"
   id="svg3022">
  <defs
     id="defs3016" />
  <metadata
     id="metadata3019">
    <rdf:RDF>
      <cc:Work
         rdf:about="">
        <dc:format>image/svg+xml</dc:format>
        <dc:type
           rdf:resource="http://purl.org/dc/dcmitype/StillImage" />
        <dc:title></dc:title>
      </cc:Work>
    </rdf:RDF>
  </metadata>
  <g
     id="g1240-2-3"
     transform="matrix(22.638187,0,0,22.638187,-238.85046,-28.872183)">
    <path
       style="fill:none;stroke:#000000;stroke-width:0.165;stroke-linecap:butt;stroke-linejoin:miter;stroke-miterlimit:4;stroke-dasharray:none;stroke-opacity:1"
       d="m 11.377083,2.38125 h 0.529166 -0.264583 V 2.1166667 2.6458333"
       id="path1197-2-1" />
    <path
       id="path1201-8-9"
       style="color:#000000;font-style:normal;font-variant:normal;font-weight:normal;font-stretch:normal;font-size:medium;line-height:normal;font-family:sans-serif;font-variant-ligatures:normal;font-variant-position:normal;font-variant-caps:normal;font-variant-numeric:normal;font-variant-alternates:normal;font-variant-east-asian:normal;font-feature-settings:normal;font-variation-settings:normal;text-indent:0;text-align:start;text-decoration:none;text-decoration-line:none;text-decoration-style:solid;text-decoration-color:#000000;letter-spacing:normal;word-spacing:normal;text-transform:none;writing-mode:lr-tb;direction:ltr;text-orientation:mixed;dominant-baseline:auto;baseline-shift:baseline;text-anchor:start;white-space:normal;shape-padding:0;shape-margin:0;inline-size:0;clip-rule:nonzero;display:inline;overflow:visible;visibility:visible;opacity:1;isolation:auto;mix-blend-mode:normal;color-interpolation:sRGB;color-interpolation-filters:linearRGB;solid-color:#000000;solid-opacity:1;vector-effect:none;fill:#000000;fill-opacity:1;fill-rule:nonzero;stroke:none;stroke-width:3.77953;stroke-linecap:butt;stroke-linejoin:miter;stroke-miterlimit:4;stroke-dasharray:none;stroke-dashoffset:0;stroke-opacity:1;color-rendering:auto;image-rendering:auto;shape-rendering:auto;text-rendering:auto;enable-background:accumulate;stop-color:#000000;stop-opacity:1"
       d="m 44.003906,4.828125 -1.09375,1.0839844 -3.033203,3.0351562 v 1.1738284 h 1.173828 l 3.033203,-3.0351565 c 0.23638,-0.2363664 1.003903,-0.9960938 1.003907,-0.9960937 l 0.08984,-0.087891 z m 0,0.3457031 0.81836,0.828125 C 44.781805,6.0424145 44.617482,6.2077405 44.5,6.3261719 L 43.677734,5.5 Z m -0.501953,0.5019531 0.828125,0.8222657 C 44.19707,6.6321289 44.100485,6.7291369 44,6.8300781 L 43.175781,6.0019531 Z M 43,6.1777344 43.828125,7.0019531 41.080078,9.7441406 C 41.059743,9.6508769 41.039255,9.5511653 40.984375,9.4414062 40.869324,9.2113052 40.63589,8.990519 40.257812,8.9160156 Z m -2.878906,2.9609375 c 0.36623,0.035714 0.543307,0.2155196 0.642578,0.4140625 0.06199,0.1239756 0.08564,0.2369037 0.09766,0.3242187 h -0.740234 z"
       transform="scale(0.26458333)" />
  </g>
</svg>
