<?xml version="1.0" encoding="UTF-8" standalone="no"?>
<svg
   width="120"
   height="120"
   viewBox="0 0 31.749999 31.750001"
   version="1.1"
   id="svg3022"
   xmlns="http://www.w3.org/2000/svg"
   xmlns:svg="http://www.w3.org/2000/svg"
   xmlns:rdf="http://www.w3.org/1999/02/22-rdf-syntax-ns#"
   xmlns:cc="http://creativecommons.org/ns#"
   xmlns:dc="http://purl.org/dc/elements/1.1/">
  <defs
     id="defs3016" />
  <metadata
     id="metadata3019">
    <rdf:RDF>
      <cc:Work
         rdf:about="">
        <dc:format>image/svg+xml</dc:format>
        <dc:type
           rdf:resource="http://purl.org/dc/dcmitype/StillImage" />
      </cc:Work>
    </rdf:RDF>
  </metadata>
  <path
     id="rect213"
     style="fill:#000000;stroke:none;stroke-width:6.34999"
     d="M 12.701181,0 A 9.5249976,9.5249976 0 0 0 3.1761832,9.5249976 v 3.1750074 h -0.1128 A 3.1749986,3.1749986 0 0 0 0,15.763364 V 28.686617 A 3.1749988,3.1749988 0 0 0 3.0633832,31.75 H 28.686617 a 3.1749988,3.1749988 0 0 0 3.064559,-3.063383 V 15.763364 a 3.1749986,3.1749986 0 0 0 -3.063383,-3.063359 h -0.1128 V 9.5249976 A 9.5249976,9.5249976 0 0 0 19.051171,0 Z m 0,6.3499904 h 6.34999 a 3.1749988,3.1749988 0 0 1 3.175007,3.1750072 V 12.700005 H 9.5261736 V 9.5249976 A 3.1749988,3.1749988 0 0 1 12.701181,6.3499904 Z m 3.174983,9.5249976 a 3.1749988,3.1749988 0 0 1 3.175007,3.175007 3.1749988,3.1749988 0 0 1 -1.686719,2.802935 l 1.686719,6.722063 h -6.34999 L 14.3879,21.85293 a 3.1749988,3.1749988 0 0 1 -1.686719,-2.802935 3.1749988,3.1749988 0 0 1 3.174983,-3.175007 z" />
</svg>
