<?xml version="1.0" encoding="UTF-8" standalone="no"?>
<svg
   xmlns:dc="http://purl.org/dc/elements/1.1/"
   xmlns:cc="http://creativecommons.org/ns#"
   xmlns:rdf="http://www.w3.org/1999/02/22-rdf-syntax-ns#"
   xmlns:svg="http://www.w3.org/2000/svg"
   xmlns="http://www.w3.org/2000/svg"
   width="120"
   height="120"
   viewBox="0 0 31.749999 31.750001"
   version="1.1"
   id="svg3022">
  <defs
     id="defs3016" />
  <metadata
     id="metadata3019">
    <rdf:RDF>
      <cc:Work
         rdf:about="">
        <dc:format>image/svg+xml</dc:format>
        <dc:type
           rdf:resource="http://purl.org/dc/dcmitype/StillImage" />
        <dc:title></dc:title>
      </cc:Work>
    </rdf:RDF>
  </metadata>
  <g
     id="g3896"
     transform="matrix(24,0,0,24,-444.50001,-190.5)">
    <path
       id="rect1694-3-2"
       style="fill:#000000;fill-opacity:1;stroke:none;stroke-width:0.149947;stroke-linecap:round;stroke-linejoin:round;stroke-miterlimit:4;stroke-dasharray:none;stroke-opacity:1"
       d="m 19.063003,7.9375 c -0.08018,0 -0.161612,0.024424 -0.220252,0.076547 -0.05864,0.052124 -0.09002,0.1210376 -0.108481,0.194892 -0.02376,0.095033 -0.02939,0.2121453 -0.03146,0.3418827 -0.07064,0.024892 -0.121631,0.090635 -0.121631,0.1700021 v 0.3578499 c 0,0.1006914 0.08105,0.1817426 0.181743,0.1817426 h 0.83874 c 0.100691,0 0.181742,-0.081051 0.181742,-0.1817426 V 8.7208246 c 0,-0.079687 -0.05148,-0.1453534 -0.122571,-0.1700021 -0.0021,-0.1297379 -0.0082,-0.2468492 -0.03193,-0.3418827 -0.01847,-0.073855 -0.04937,-0.1427681 -0.108012,-0.194892 -0.05864,-0.052123 -0.138194,-0.076547 -0.218374,-0.076547 z m 0,0.2413841 h 0.239505 c 0.04004,0 0.04925,0.0061 0.05823,0.014088 0.009,0.00799 0.0241,0.028301 0.03569,0.07467 0.01426,0.057014 0.01989,0.155272 0.02301,0.2714399 h -0.473844 c 0.0031,-0.1161686 0.0087,-0.2144256 0.02301,-0.2714399 0.0116,-0.046368 0.02483,-0.066682 0.03382,-0.07467 0.009,-0.00799 0.02054,-0.014088 0.06058,-0.014088 z m 0.119283,0.4804205 a 0.12021853,0.12021853 0 0 1 0.120222,0.1202224 0.12021853,0.12021853 0 0 1 -0.08218,0.1141174 l 0.08218,0.2465501 h -0.240444 l 0.08218,-0.2465501 A 0.12021853,0.12021853 0 0 1 19.062064,8.779527 0.12021853,0.12021853 0 0 1 19.182286,8.6593046 Z" />
  </g>
</svg>
