<?xml version="1.0" encoding="UTF-8" standalone="no"?>
<!-- Created with Inkscape (http://www.inkscape.org/) -->

<svg
   width="120.0px"
   height="120.0px"
   viewBox="0 0 120.0 120.0"
   version="1.1"
   id="SVGRoot"
   sodipodi:docname="zoom_icons.svg"
   inkscape:version="1.1 (c4e8f9ed74, 2021-05-24)"
   xmlns:inkscape="http://www.inkscape.org/namespaces/inkscape"
   xmlns:sodipodi="http://sodipodi.sourceforge.net/DTD/sodipodi-0.dtd"
   xmlns="http://www.w3.org/2000/svg"
   xmlns:svg="http://www.w3.org/2000/svg">
  <sodipodi:namedview
     id="namedview1149"
     pagecolor="#505050"
     bordercolor="#eeeeee"
     borderopacity="1"
     inkscape:pageshadow="0"
     inkscape:pageopacity="0"
     inkscape:pagecheckerboard="0"
     inkscape:document-units="px"
     showgrid="true"
     inkscape:zoom="40.96"
     inkscape:cx="7.0800782"
     inkscape:cy="3.4667969"
     inkscape:window-width="1366"
     inkscape:window-height="742"
     inkscape:window-x="0"
     inkscape:window-y="282"
     inkscape:window-maximized="1"
     inkscape:current-layer="layer1"
     inkscape:snap-bbox="true"
     inkscape:snap-midpoints="true"
     inkscape:snap-grids="false"
     inkscape:snap-page="true"
     inkscape:object-nodes="true"
     inkscape:snap-nodes="false"
     inkscape:bbox-paths="false"
     inkscape:bbox-nodes="true">
    <inkscape:grid
       type="xygrid"
       id="grid1155" />
  </sodipodi:namedview>
  <defs
     id="defs1144" />
  <g
     inkscape:label="Capa 1"
     inkscape:groupmode="layer"
     id="layer1">
    <path
       id="path1379"
       style="fill:#000000;stroke:none;stroke-width:0.2"
       d="M 2,0 A 2,2 0 0 0 0,2 2,2 0 0 0 2,4 2,2 0 0 0 2.8222656,3.8222656 L 4.5,5.5 5.5,4.5 3.8222656,2.8222656 A 2,2 0 0 0 4,2 2,2 0 0 0 2,0 Z M 2,1 A 1,1 0 0 1 3,2 1,1 0 0 1 2,3 1,1 0 0 1 0.99999998,2 1,1 0 0 1 2,1 Z" />
  </g>
</svg>
