<?xml version="1.0" encoding="UTF-8" standalone="no"?>
<!-- Created with Inkscape (http://www.inkscape.org/) -->

<svg
   width="120.0px"
   height="120.0px"
   viewBox="0 0 120.0 120.0"
   version="1.1"
   id="SVGRoot"
   xmlns="http://www.w3.org/2000/svg"
   xmlns:svg="http://www.w3.org/2000/svg">
  <defs
     id="defs1144" />
  <g
     id="layer1">
    <path
       id="path1379"
       style="fill:#000000;stroke:none;stroke-width:4.36364"
       d="M 43.636364,0 A 43.636364,43.636364 0 0 0 0,43.636364 43.636364,43.636364 0 0 0 43.636364,87.272727 43.636364,43.636364 0 0 0 61.576704,83.394886 L 98.181818,120 120,98.181818 83.394886,61.576704 A 43.636364,43.636364 0 0 0 87.272727,43.636364 43.636364,43.636364 0 0 0 43.636364,0 Z m 0,21.818182 A 21.818182,21.818182 0 0 1 65.454545,43.636364 21.818182,21.818182 0 0 1 43.636364,65.454545 21.818182,21.818182 0 0 1 21.818182,43.636364 21.818182,21.818182 0 0 1 43.636364,21.818182 Z M 32.727273,40.014205 v 7.244317 h 21.818182 v -7.244317 z" />
  </g>
</svg>
