<?xml version="1.0" encoding="UTF-8" standalone="no"?>
<svg
   xmlns:dc="http://purl.org/dc/elements/1.1/"
   xmlns:cc="http://creativecommons.org/ns#"
   xmlns:rdf="http://www.w3.org/1999/02/22-rdf-syntax-ns#"
   xmlns:svg="http://www.w3.org/2000/svg"
   xmlns="http://www.w3.org/2000/svg"
   width="173.33333"
   height="40"
   viewBox="0 0 45.861109 10.583334"
   version="1.1"
   id="svg1360">
  <defs
     id="defs1354" />
  <metadata
     id="metadata1357">
    <rdf:RDF>
      <cc:Work
         rdf:about="">
        <dc:format>image/svg+xml</dc:format>
        <dc:type
           rdf:resource="http://purl.org/dc/dcmitype/StillImage" />
        <dc:title></dc:title>
      </cc:Work>
    </rdf:RDF>
  </metadata>
  <g
     id="layer1">
    <g
       id="g1179"
       transform="matrix(6.666667,0,0,6.666667,-22.930557,-7.0555556)">
      <g
         id="g907">
        <path
           id="path857"
           style="fill:#ff0000;fill-opacity:1;stroke:none;stroke-width:0.999999"
           d="M 16.951172,5 A 1.9999999,1.9999999 0 0 0 15,7 h 1 a 0.99999994,0.99999994 0 0 1 1,-1 0.99999994,0.99999994 0 0 1 1,1 h 1 A 1.9999999,1.9999999 0 0 0 17,5 1.9999999,1.9999999 0 0 0 16.95117,5 Z"
           transform="scale(0.26458333)" />
        <path
           id="path857-3"
           style="fill:#0000ff;fill-opacity:1;stroke:none;stroke-width:0.264583"
           d="M 4.5108357,2.38125 A 0.52916663,0.52916663 0 0 0 5.0270833,1.8520834 H 4.7625 A 0.26458331,0.26458331 0 0 1 4.4979167,2.1166667 0.26458331,0.26458331 0 0 1 4.2333333,1.8520834 H 3.96875 a 0.52916663,0.52916663 0 0 0 0.5291667,0.5291666 0.52916663,0.52916663 0 0 0 0.01292,0 z" />
        <path
           style="fill:#0000ff;fill-opacity:1;stroke:none;stroke-width:0.264583px;stroke-linecap:butt;stroke-linejoin:miter;stroke-opacity:1"
           d="M 3.96875,1.8520833 3.7041666,2.1166666 H 4.2333333 L 3.96875,1.8520833"
           id="path885" />
        <path
           style="fill:#ff0000;fill-opacity:1;stroke:none;stroke-width:0.264583px;stroke-linecap:butt;stroke-linejoin:miter;stroke-opacity:1"
           d="M 5.0270833,1.8520833 5.2916666,1.5875 H 4.7624999 Z"
           id="path887" />
      </g>
      <g
         aria-label="SystemicWorks"
         id="text892"
         style="font-style:normal;font-weight:normal;font-size:0.705556px;line-height:1.25;font-family:sans-serif;fill:#000000;fill-opacity:1;stroke:none;stroke-width:0.0261318">
        <path
           d="m 5.7375776,1.5578664 q 0.049389,0 0.086783,0.016228 0.0381,0.015522 0.068439,0.046567 l -0.0508,0.059267 q -0.045861,-0.039511 -0.093839,-0.039511 -0.027517,0 -0.043039,0.013406 -0.014817,0.013405 -0.014817,0.036689 0,0.015522 0.00706,0.026105 0.00706,0.010583 0.024694,0.020461 0.017639,0.00988 0.052211,0.022578 0.045155,0.016933 0.072672,0.036689 0.028222,0.01905 0.043039,0.047978 0.014817,0.028928 0.014817,0.071967 0,0.045156 -0.021872,0.080433 -0.021167,0.034572 -0.062089,0.054328 -0.040217,0.019756 -0.094545,0.019756 -0.1037167,0 -0.1700389,-0.069144 l 0.055033,-0.061383 q 0.026106,0.023283 0.052211,0.035278 0.026811,0.011289 0.05715,0.011289 0.03175,0 0.049389,-0.016933 0.017639,-0.016933 0.017639,-0.045156 0,-0.026811 -0.016228,-0.043039 -0.016228,-0.016228 -0.061383,-0.032455 -0.073378,-0.027517 -0.1044223,-0.062089 -0.031045,-0.034572 -0.031045,-0.088194 0,-0.041628 0.021167,-0.073378 0.021167,-0.032456 0.057856,-0.050094 0.037394,-0.017639 0.083961,-0.017639 z"
           style="font-size:0.705556px;fill:#ff0000"
           id="path841" />
        <path
           d="M 6.146093,2.0595167 Q 6.1058763,2.2055668 5.9499484,2.2154446 L 5.937954,2.1399501 q 0.048683,-0.00706 0.072672,-0.0254 0.023989,-0.017639 0.0381,-0.055739 H 6.0099207 L 5.9097317,1.684161 h 0.1121834 l 0.05715,0.3055057 0.064206,-0.3055057 h 0.1093611 z"
           style="font-size:0.705556px;fill:#ff0000"
           id="path843" />
        <path
           d="m 6.4015036,1.6721665 q 0.037395,0 0.06985,0.011995 0.032456,0.011994 0.05715,0.033867 l -0.039511,0.059267 q -0.042333,-0.027517 -0.079728,-0.027517 -0.019756,0 -0.030339,0.00847 -0.00988,0.00776 -0.00988,0.021872 0,0.010583 0.00494,0.018344 0.00494,0.00706 0.019756,0.014817 0.014817,0.00706 0.04445,0.017639 0.052211,0.017639 0.076906,0.04445 0.0254,0.026811 0.0254,0.072672 0,0.056444 -0.043039,0.089606 -0.043039,0.033161 -0.1100667,0.033161 -0.043039,0 -0.080433,-0.014817 -0.036689,-0.014817 -0.062794,-0.040217 l 0.051506,-0.057856 q 0.043744,0.035278 0.087489,0.035278 0.021872,0 0.033867,-0.00917 0.0127,-0.00988 0.0127,-0.026811 0,-0.013406 -0.00564,-0.021872 -0.00494,-0.00847 -0.019756,-0.016228 -0.014111,-0.00776 -0.04445,-0.017639 -0.051506,-0.018344 -0.075495,-0.045156 -0.023283,-0.027517 -0.023283,-0.069144 0,-0.032455 0.016933,-0.058561 0.016933,-0.026106 0.048683,-0.040922 0.03175,-0.015522 0.074789,-0.015522 z"
           style="font-size:0.705556px;fill:#ff0000"
           id="path845" />
        <path
           d="m 6.8064915,2.0411723 q -0.01905,0.014111 -0.04445,0.021872 -0.024694,0.00776 -0.049389,0.00776 -0.057856,0 -0.086783,-0.032455 -0.028928,-0.032456 -0.028928,-0.091017 V 1.760361 h -0.045156 v -0.0762 h 0.045156 V 1.603022 l 0.1086556,-0.0127 v 0.093839 h 0.076906 l -0.010583,0.0762 H 6.705597 v 0.1855612 q 0,0.038806 0.029633,0.038806 0.016228,0 0.035278,-0.010583 z"
           style="font-size:0.705556px;fill:#ff0000"
           id="path847" />
        <path
           d="m 7.1275179,1.8640777 q 0,0.00564 -0.00212,0.039511 H 6.9165566 q 0.00423,0.049389 0.021872,0.068439 0.017639,0.01905 0.050095,0.01905 0.021167,0 0.040217,-0.00776 0.01905,-0.00776 0.041628,-0.023989 l 0.04445,0.059972 q -0.057856,0.051505 -0.1347612,0.051505 -0.084667,0 -0.1291168,-0.052211 -0.043744,-0.052917 -0.043744,-0.1453445 0,-0.090311 0.042333,-0.1453446 0.042333,-0.055739 0.119239,-0.055739 0.074083,0 0.1164167,0.050095 0.042333,0.049389 0.042333,0.1418167 z m -0.106539,-0.031044 q 0,-0.04445 -0.011994,-0.066322 -0.011289,-0.022578 -0.038806,-0.022578 -0.024694,0 -0.0381,0.021167 -0.013406,0.020461 -0.016228,0.072672 h 0.1051278 z"
           style="font-size:0.705556px;fill:#ff0000"
           id="path849" />
        <path
           d="m 7.5607285,1.6721665 q 0.040217,0 0.064206,0.029633 0.024694,0.028928 0.024694,0.079728 V 2.0588112 H 7.5423841 V 1.7956388 q 0,-0.042333 -0.024694,-0.042333 -0.014111,0 -0.0254,0.011289 -0.011289,0.011289 -0.022578,0.033161 V 2.0588112 H 7.3631729 V 1.7956388 q 0,-0.042333 -0.0254,-0.042333 -0.0254,0 -0.047978,0.04445 V 2.0588112 H 7.1825505 V 1.684161 h 0.094545 l 0.00706,0.04445 q 0.019756,-0.028222 0.043039,-0.042333 0.023989,-0.014111 0.054328,-0.014111 0.028222,0 0.048683,0.015522 0.020461,0.014817 0.030339,0.043744 0.020461,-0.029633 0.04445,-0.04445 0.024694,-0.014817 0.055739,-0.014817 z"
           style="font-size:0.705556px;fill:#ff0000"
           id="path851" />
        <path
           d="m 7.7745113,1.488722 q 0.027517,0 0.045156,0.017639 0.017639,0.017639 0.017639,0.043744 0,0.026811 -0.017639,0.04445 -0.017639,0.017639 -0.045156,0.017639 -0.027517,0 -0.045861,-0.017639 -0.017639,-0.017639 -0.017639,-0.04445 0,-0.026106 0.017639,-0.043744 0.018344,-0.017639 0.045861,-0.017639 z m 0.054328,0.5700892 H 7.7201835 V 1.684161 h 0.1086556 z"
           style="font-size:0.705556px;fill:#ff0000"
           id="path853" />
        <path
           d="m 8.0560277,1.6721665 q 0.035278,0 0.0635,0.011289 0.028222,0.011289 0.052917,0.034572 l -0.045156,0.062089 q -0.031045,-0.024694 -0.062795,-0.024694 -0.032456,0 -0.048683,0.026811 -0.016228,0.026811 -0.016228,0.091722 0,0.062089 0.016228,0.086783 0.016933,0.024695 0.047978,0.024695 0.016228,0 0.029633,-0.00494 0.013406,-0.00564 0.03175,-0.018344 l 0.047272,0.064206 q -0.048683,0.04445 -0.1150056,0.04445 -0.080433,0 -0.1262946,-0.051505 -0.045155,-0.051506 -0.045155,-0.144639 0,-0.061383 0.020461,-0.1072445 0.021167,-0.045861 0.059267,-0.070556 0.038806,-0.024695 0.090311,-0.024695 z"
           style="font-size:0.705556px;fill:#ff0000"
           id="path855" />
        <path
           d="M 8.640933,2.0588112 H 8.4941773 L 8.4447884,1.6820443 8.3911661,2.0588112 H 8.2479383 L 8.1794994,1.5698609 h 0.1093611 l 0.041628,0.403578 0.05715,-0.403578 h 0.1171223 l 0.053622,0.403578 0.047978,-0.403578 h 0.1051279 z"
           style="font-size:0.705556px;fill:#0000ff"
           id="path858" />
        <path
           d="m 8.8991657,1.6721665 q 0.079022,0 0.1234723,0.051506 0.045156,0.0508 0.045156,0.1481668 0,0.093133 -0.045156,0.14605 -0.045156,0.052917 -0.1234723,0.052917 -0.079022,0 -0.1234723,-0.051505 -0.04445,-0.051506 -0.04445,-0.1481668 0,-0.093839 0.04445,-0.1460501 0.045156,-0.052917 0.1234723,-0.052917 z m 0,0.080433 q -0.028928,0 -0.042333,0.027517 -0.013406,0.027517 -0.013406,0.091017 0,0.064911 0.013406,0.092428 0.013405,0.027517 0.042333,0.027517 0.028928,0 0.042333,-0.027517 0.014111,-0.028222 0.014111,-0.091722 0,-0.064911 -0.013406,-0.091722 -0.013405,-0.027517 -0.043039,-0.027517 z"
           style="font-size:0.705556px;fill:#0000ff"
           id="path860" />
        <path
           d="m 9.3154428,1.6735776 q 0.01905,0 0.033161,0.00564 l -0.017639,0.1044223 q -0.014817,-0.00423 -0.029633,-0.00423 -0.028928,0 -0.04445,0.021167 -0.015522,0.021167 -0.023989,0.0635 V 2.0588112 H 9.1242372 V 1.684161 h 0.094544 l 0.00847,0.066322 q 0.0127,-0.036689 0.035278,-0.056445 0.023283,-0.020461 0.052917,-0.020461 z"
           style="font-size:0.705556px;fill:#0000ff"
           id="path862" />
        <path
           d="M 9.4904204,2.0588112 H 9.3817648 V 1.5352887 L 9.4904204,1.5239998 Z M 9.6018982,1.8485555 9.7091427,2.0588112 H 9.5913149 L 9.4932426,1.8542 9.5948427,1.684161 h 0.1072445 z"
           style="font-size:0.705556px;fill:#0000ff"
           id="path864" />
        <path
           d="m 9.8601313,1.6721665 q 0.037394,0 0.06985,0.011995 0.032456,0.011994 0.05715,0.033867 l -0.039511,0.059267 q -0.042333,-0.027517 -0.079728,-0.027517 -0.019756,0 -0.030339,0.00847 -0.00988,0.00776 -0.00988,0.021872 0,0.010583 0.00494,0.018344 0.00494,0.00706 0.019756,0.014817 0.014817,0.00706 0.04445,0.017639 0.052211,0.017639 0.076906,0.04445 0.0254,0.026811 0.0254,0.072672 0,0.056444 -0.043039,0.089606 -0.043039,0.033161 -0.1100667,0.033161 -0.043039,0 -0.080433,-0.014817 -0.036689,-0.014817 -0.062794,-0.040217 l 0.051506,-0.057856 q 0.043745,0.035278 0.087489,0.035278 0.021872,0 0.033867,-0.00917 0.0127,-0.00988 0.0127,-0.026811 0,-0.013406 -0.00564,-0.021872 -0.00494,-0.00847 -0.019756,-0.016228 -0.014111,-0.00776 -0.04445,-0.017639 -0.051506,-0.018344 -0.075494,-0.045156 -0.023283,-0.027517 -0.023283,-0.069144 0,-0.032455 0.016933,-0.058561 0.016933,-0.026106 0.048683,-0.040922 0.03175,-0.015522 0.074789,-0.015522 z"
           style="font-size:0.705556px;fill:#0000ff"
           id="path866" />
      </g>
    </g>
  </g>
</svg>
